<?xml version="1.0"?>
<svg xmlns="http://www.w3.org/2000/svg" xmlns:xlink="http://www.w3.org/1999/xlink" xmlns:svgjs="http://svgjs.com/svgjs" version="1.1" width="512" height="512" x="0" y="0" viewBox="0 0 512 512" style="enable-background:new 0 0 512 512" xml:space="preserve" class=""><circle r="256" cx="256" cy="256" fill="#ffffff" shape="circle"/><g transform="matrix(0.7,0,0,0.7,76.80000000000001,76.80000000000001)"><g xmlns="http://www.w3.org/2000/svg"><path d="m467 211h-166v-166c0-24.853-20.147-45-45-45s-45 20.147-45 45v166h-166c-24.853 0-45 20.147-45 45s20.147 45 45 45h166v166c0 24.853 20.147 45 45 45s45-20.147 45-45v-166h166c24.853 0 45-20.147 45-45s-20.147-45-45-45z" fill="#205e8a" data-original="#000000" class=""/></g></g></svg>
